HIERARCHY
ROOT hips
{
	OFFSET 0.000000 104.274902 0.000000
	CHANNELS 6 Xposition Yposition Zposition Xrotation Yrotation Zrotation
	JOINT spine
	{
		OFFSET 0.000000 10.181549 0.131524
		CHANNELS 6 Xposition Yposition Zposition Xrotation Yrotation Zrotation
		JOINT chest
		{
			OFFSET 0.000000 9.893990 -1.470706
			CHANNELS 3 Xrotation Yrotation Zrotation
			JOINT upperChest
			{
				OFFSET 0.000000 9.220787 -1.370637
				CHANNELS 3 Xrotation Yrotation Zrotation
				JOINT neck
				{
					OFFSET 0.000000 16.740372 -2.049022
					CHANNELS 6 Xposition Yposition Zposition Xrotation Yrotation Zrotation
					JOINT head
					{
						OFFSET 0.000000 9.617859 1.684976
						CHANNELS 6 Xposition Yposition Zposition Xrotation Yrotation Zrotation
						JOINT headEnd
						{
							OFFSET 0.000000 22.037384 7.501072
							CHANNELS 6 Xposition Yposition Zposition Xrotation Yrotation Zrotation
							End Site
							{
								OFFSET 0.000000 23.106567 -2.828246
							}
						}
					}
				}
				JOINT rightShoulder
				{
					OFFSET -4.570000 11.014877 -2.160840
					CHANNELS 6 Xposition Yposition Zposition Xrotation Yrotation Zrotation
					JOINT rightUpperArm
					{
						OFFSET -10.592867 -0.524796 -2.232105
						CHANNELS 3 Xrotation Yrotation Zrotation
						JOINT rightLowerArm
						{
							OFFSET -27.841497 0.000000 -0.000002
							CHANNELS 3 Xrotation Yrotation Zrotation
							JOINT rightHand
							{
								OFFSET -28.328812 0.000000 -0.000001
								CHANNELS 3 Xrotation Yrotation Zrotation
								JOINT rightThumbProximal
								{
									OFFSET -2.464798 -1.573990 2.681911
									CHANNELS 6 Xposition Yposition Zposition Xrotation Yrotation Zrotation
									JOINT rightThumbIntermediate
									{
										OFFSET -3.244781 -1.873383 1.873376
										CHANNELS 3 Xrotation Yrotation Zrotation
										JOINT rightThumbDistal
										{
											OFFSET -2.646263 -1.527817 1.527818
											CHANNELS 6 Xposition Yposition Zposition Xrotation Yrotation Zrotation
											JOINT rightHandThumb4
											{
												OFFSET -1.994591 -1.151581 1.151575
												CHANNELS 6 Xposition Yposition Zposition Xrotation Yrotation Zrotation
												End Site
												{
													OFFSET -1.860176 -1.142715 1.365483
												}
											}
										}
									}
								}
								JOINT rightIndexProximal
								{
									OFFSET -9.108299 -0.517883 2.259803
									CHANNELS 6 Xposition Yposition Zposition Xrotation Yrotation Zrotation
									JOINT rightIndexIntermediate
									{
										OFFSET -3.699997 0.000000 0.000000
										CHANNELS 3 Xrotation Yrotation Zrotation
										JOINT rightIndexDistal
										{
											OFFSET -2.850006 0.000000 0.000000
											CHANNELS 3 Xrotation Yrotation Zrotation
											JOINT rightHandIndex4
											{
												OFFSET -2.772194 0.000000 0.000000
												CHANNELS 3 Xrotation Yrotation Zrotation
												End Site
												{
													OFFSET -2.772202 0.000000 -0.000484
												}
											}
										}
									}
								}
								JOINT rightMiddleProximal
								{
									OFFSET -9.532501 0.000000 -0.000000
									CHANNELS 6 Xposition Yposition Zposition Xrotation Yrotation Zrotation
									JOINT rightMiddleIntermediate
									{
										OFFSET -3.699997 0.000000 0.000000
										CHANNELS 3 Xrotation Yrotation Zrotation
										JOINT rightMiddleDistal
										{
											OFFSET -2.949997 0.000000 0.000000
											CHANNELS 3 Xrotation Yrotation Zrotation
											JOINT rightHandMiddle4
											{
												OFFSET -2.946594 0.000000 0.000000
												CHANNELS 3 Xrotation Yrotation Zrotation
												End Site
												{
													OFFSET -2.946602 0.000000 -0.000982
												}
											}
										}
									}
								}
								JOINT rightRingProximal
								{
									OFFSET -9.103600 -0.043106 -1.865100
									CHANNELS 6 Xposition Yposition Zposition Xrotation Yrotation Zrotation
									JOINT rightRingIntermediate
									{
										OFFSET -3.379303 0.000000 0.000000
										CHANNELS 3 Xrotation Yrotation Zrotation
										JOINT rightRingDistal
										{
											OFFSET -2.889694 0.000000 0.000000
											CHANNELS 3 Xrotation Yrotation Zrotation
											JOINT rightHandRing4
											{
												OFFSET -2.638802 0.000000 0.000000
												CHANNELS 3 Xrotation Yrotation Zrotation
												End Site
												{
													OFFSET -2.638802 0.000000 0.004218
												}
											}
										}
									}
								}
								JOINT rightLittleProximal
								{
									OFFSET -8.076698 -0.486725 -3.806299
									CHANNELS 6 Xposition Yposition Zposition Xrotation Yrotation Zrotation
									JOINT rightLittleIntermediate
									{
										OFFSET -3.600006 0.000000 0.000000
										CHANNELS 3 Xrotation Yrotation Zrotation
										JOINT rightLittleDistal
										{
											OFFSET -2.099998 0.000000 0.000000
											CHANNELS 3 Xrotation Yrotation Zrotation
											JOINT rightHandPinky4
											{
												OFFSET -2.115791 0.000000 0.000000
												CHANNELS 3 Xrotation Yrotation Zrotation
												End Site
												{
													OFFSET -2.115799 0.000000 0.000174
												}
											}
										}
									}
								}
							}
						}
					}
				}
				JOINT leftShoulder
				{
					OFFSET 4.570400 11.014679 -2.160816
					CHANNELS 6 Xposition Yposition Zposition Xrotation Yrotation Zrotation
					JOINT leftUpperArm
					{
						OFFSET 10.592373 -0.524597 -2.232116
						CHANNELS 3 Xrotation Yrotation Zrotation
						JOINT leftLowerArm
						{
							OFFSET 27.841488 0.000000 0.000001
							CHANNELS 3 Xrotation Yrotation Zrotation
							JOINT leftHand
							{
								OFFSET 28.328808 0.000000 -0.000000
								CHANNELS 3 Xrotation Yrotation Zrotation
								JOINT leftThumbProximal
								{
									OFFSET 2.466103 -1.576202 2.681698
									CHANNELS 6 Xposition Yposition Zposition Xrotation Yrotation Zrotation
									JOINT leftThumbIntermediate
									{
										OFFSET 3.243317 -1.872528 1.872530
										CHANNELS 3 Xrotation Yrotation Zrotation
										JOINT leftThumbDistal
										{
											OFFSET 2.647881 -1.528763 1.528754
											CHANNELS 6 Xposition Yposition Zposition Xrotation Yrotation Zrotation
											JOINT leftHandThumb4
											{
												OFFSET 1.998924 -1.154083 1.154080
												CHANNELS 6 Xposition Yposition Zposition Xrotation Yrotation Zrotation
												End Site
												{
													OFFSET 1.884041 -1.149155 1.337651
												}
											}
										}
									}
								}
								JOINT leftIndexProximal
								{
									OFFSET 9.109299 -0.518005 2.259900
									CHANNELS 6 Xposition Yposition Zposition Xrotation Yrotation Zrotation
									JOINT leftIndexIntermediate
									{
										OFFSET 3.699997 0.000000 0.000000
										CHANNELS 3 Xrotation Yrotation Zrotation
										JOINT leftIndexDistal
										{
											OFFSET 2.850006 0.000000 0.000000
											CHANNELS 3 Xrotation Yrotation Zrotation
											JOINT leftHandIndex4
											{
												OFFSET 2.774895 0.000000 0.000000
												CHANNELS 3 Xrotation Yrotation Zrotation
												End Site
												{
													OFFSET 2.774902 0.000000 -0.000072
												}
											}
										}
									}
								}
								JOINT leftMiddleProximal
								{
									OFFSET 9.533401 0.000000 0.000000
									CHANNELS 6 Xposition Yposition Zposition Xrotation Yrotation Zrotation
									JOINT leftMiddleIntermediate
									{
										OFFSET 3.699997 0.000000 0.000000
										CHANNELS 3 Xrotation Yrotation Zrotation
										JOINT leftMiddleDistal
										{
											OFFSET 2.949997 0.000000 0.000000
											CHANNELS 3 Xrotation Yrotation Zrotation
											JOINT leftHandMiddle4
											{
												OFFSET 2.952896 0.000000 0.000000
												CHANNELS 3 Xrotation Yrotation Zrotation
												End Site
												{
													OFFSET 2.952904 0.000000 0.000165
												}
											}
										}
									}
								}
								JOINT leftRingProximal
								{
									OFFSET 9.104500 -0.042999 -1.865101
									CHANNELS 6 Xposition Yposition Zposition Xrotation Yrotation Zrotation
									JOINT leftRingIntermediate
									{
										OFFSET 3.149994 0.000000 0.000000
										CHANNELS 3 Xrotation Yrotation Zrotation
										JOINT leftRingDistal
										{
											OFFSET 2.950005 0.000000 0.000000
											CHANNELS 3 Xrotation Yrotation Zrotation
											JOINT leftHandRing4
											{
												OFFSET 2.644302 0.000000 0.000000
												CHANNELS 3 Xrotation Yrotation Zrotation
												End Site
												{
													OFFSET 2.644302 0.000000 0.000083
												}
											}
										}
									}
								}
								JOINT leftLittleProximal
								{
									OFFSET 8.077805 -0.486893 -3.806302
									CHANNELS 6 Xposition Yposition Zposition Xrotation Yrotation Zrotation
									JOINT leftLittleIntermediate
									{
										OFFSET 3.600006 0.000000 0.000000
										CHANNELS 3 Xrotation Yrotation Zrotation
										JOINT leftLittleDistal
										{
											OFFSET 2.099998 0.000000 0.000000
											CHANNELS 3 Xrotation Yrotation Zrotation
											JOINT leftHandPinky4
											{
												OFFSET 2.125496 0.000000 0.000000
												CHANNELS 3 Xrotation Yrotation Zrotation
												End Site
												{
													OFFSET 2.125504 0.000000 -0.001254
												}
											}
										}
									}
								}
							}
						}
					}
				}
			}
		}
	}
	JOINT rightUpperLeg
	{
		OFFSET -8.207800 -6.751701 -1.599544
		CHANNELS 6 Xposition Yposition Zposition Xrotation Yrotation Zrotation
		JOINT rightLowerLeg
		{
			OFFSET 0.000004 -44.370152 0.345934
			CHANNELS 3 Xrotation Yrotation Zrotation
			JOINT rightFoot
			{
				OFFSET 0.000004 -44.423664 -3.043535
				CHANNELS 3 Xrotation Yrotation Zrotation
				JOINT rightToes
				{
					OFFSET 0.000001 -8.728691 10.710592
					CHANNELS 3 Xrotation Yrotation Zrotation
					JOINT rightToesEnd
					{
						OFFSET 0.000000 -0.000665 9.278101
						CHANNELS 3 Xrotation Yrotation Zrotation
						End Site
						{
							OFFSET 0.000000 -0.000665 9.278103
						}
					}
				}
			}
		}
	}
	JOINT leftUpperLeg
	{
		OFFSET 8.207800 -6.751701 -1.599544
		CHANNELS 6 Xposition Yposition Zposition Xrotation Yrotation Zrotation
		JOINT leftLowerLeg
		{
			OFFSET 0.000004 -44.370037 0.346940
			CHANNELS 3 Xrotation Yrotation Zrotation
			JOINT leftFoot
			{
				OFFSET 0.000004 -44.423611 -3.044388
				CHANNELS 3 Xrotation Yrotation Zrotation
				JOINT leftToes
				{
					OFFSET 0.000001 -8.728690 10.710592
					CHANNELS 3 Xrotation Yrotation Zrotation
					JOINT leftToesEnd
					{
						OFFSET 0.000000 -0.000680 9.278101
						CHANNELS 3 Xrotation Yrotation Zrotation
						End Site
						{
							OFFSET 0.000000 -0.000680 9.278101
						}
					}
				}
			}
		}
	}
}
MOTION
Frames: 4
Frame Time: 0.033333
0.675602 97.288269 1.907617 -4.252605 7.487352 -1.379033 0.000000 10.181537 0.131523 6.548580 1.261793 0.833134 13.088752 2.599630 1.353153 13.088758 2.599628 1.353154 -0.000001 16.740381 -2.049023 -21.727590 -11.480748 0.149149 -0.000000 9.617848 1.684978 -17.124046 -8.006627 -0.223260 -0.000000 22.037354 7.501081 0.000000 0.000000 -0.000000 -4.570000 11.014869 -2.160839 7.879101 -3.569875 -1.422978 -9.674446 12.156490 42.992469 2.550290 65.797938 -2.505390 0.892011 8.645758 -0.546538 -2.464784 -1.573991 2.681914 -7.065946 -10.484898 -9.175196 -4.493773 -3.616813 -1.609194 -2.646258 -1.527811 1.527819 -0.000004 0.000004 -0.000009 -1.994614 -1.151581 1.151580 0.000003 -0.000006 0.000003 -9.108306 -0.517877 2.259804 -4.060042 -8.950345 42.891450 3.221809 1.668285 67.367454 -0.000003 0.000003 -0.000005 0.000002 -0.000000 -0.000002 -9.532501 0.000006 0.000001 -4.467831 -4.256967 42.429439 -2.582355 3.326726 69.253467 0.000003 0.000001 -0.000003 -0.000001 -0.000001 -0.000003 -9.103601 -0.043105 -1.865097 -3.569476 -0.815321 43.706083 -5.666310 0.995987 64.911078 -0.000011 -0.000000 0.000011 0.000000 0.000002 -0.000001 -8.076691 -0.486721 -3.806294 -6.784498 -0.739801 44.146624 -5.830736 1.625606 62.963996 0.000004 0.000002 0.000013 -0.000000 -0.000002 0.000002 4.570400 11.014691 -2.160818 2.460867 -1.850914 5.172959 -12.045585 -14.752710 -69.403396 2.702832 -51.051815 2.179374 16.925371 -19.860619 4.695931 2.466106 -1.576202 2.681688 -7.739238 -2.618401 7.911167 8.885431 15.945801 -8.597414 2.647871 -1.528735 1.528752 -0.000005 0.000013 -0.000009 1.998913 -1.154101 1.154067 0.000001 -0.000001 0.000001 9.109306 -0.518011 2.259898 -1.865917 6.744888 -46.019028 4.712898 0.153728 -63.652568 0.000001 0.000001 -0.000002 0.000001 0.000004 -0.000002 9.533403 0.000018 -0.000006 -2.912195 5.189058 -49.438634 -1.607740 -2.371069 -63.083777 0.000001 0.000000 -0.000000 -0.000001 0.000002 0.000000 9.104494 -0.042979 -1.865109 -0.959344 1.391457 -55.577533 -6.665363 -2.401290 -62.930761 -0.000002 0.000001 0.000000 -0.000001 0.000001 0.000001 8.077815 -0.486883 -3.806304 -2.836581 2.558342 -51.019228 -8.418793 -5.421268 -64.154143 -0.000014 -0.000009 -0.000016 -0.000001 0.000004 -0.000002 -8.207802 -6.751695 -1.599537 -26.690658 -0.202718 -7.097795 45.105142 1.133424 1.758105 -7.332864 -16.339964 -1.313713 1.111486 -2.222014 1.829178 0.000000 0.000001 -0.000000 8.207800 -6.751694 -1.599543 -16.901563 -3.994819 7.809741 46.682150 -1.726806 -1.622314 -14.778516 -0.646337 -4.643093 -11.575370 -0.978699 1.636491 0.000000 -0.000000 0.000000 
1.158985 97.155350 2.489583 -4.437561 6.489166 -2.010994 -0.000001 10.181564 0.131523 6.754269 1.368010 0.856949 13.501807 2.809149 1.320314 13.501806 2.809149 1.320316 -0.000001 16.740376 -2.049019 -22.887129 -11.291785 0.076382 0.000000 9.617823 1.684981 -17.091976 -7.763767 -0.211830 -0.000000 22.037354 7.501077 0.000002 -0.000000 -0.000000 -4.569999 11.014883 -2.160843 8.073720 -4.345367 -1.933487 -9.599730 14.523204 44.641379 2.437947 66.437496 -2.403610 0.526805 9.349038 -0.466115 -2.464794 -1.574012 2.681908 -4.494927 -11.169868 -10.630778 -4.887233 -3.646814 -1.431035 -2.646271 -1.527796 1.527814 -0.000001 0.000001 -0.000009 -1.994586 -1.151572 1.151574 0.000003 -0.000004 -0.000002 -9.108282 -0.517893 2.259802 -2.919204 -9.702615 45.176794 3.174414 2.155780 73.123787 -0.000003 0.000003 -0.000005 0.000001 -0.000003 -0.000000 -9.532505 -0.000008 0.000000 -4.187852 -4.795309 44.850502 -2.958065 3.434616 75.113496 0.000002 0.000003 -0.000002 0.000001 0.000003 -0.000002 -9.103609 -0.043118 -1.865101 -3.784163 -0.743311 46.293844 -6.192842 0.678542 69.897636 -0.000009 0.000005 0.000008 -0.000001 -0.000002 0.000002 -8.076700 -0.486750 -3.806304 -7.582986 -0.785859 45.999835 -6.223872 1.284129 68.225073 0.000003 -0.000001 0.000015 0.000001 0.000001 -0.000001 4.570398 11.014664 -2.160817 2.562114 -1.465505 6.089042 -10.028786 -14.764697 -70.134684 2.926566 -54.201267 2.445042 15.886095 -20.265001 3.930097 2.466090 -1.576230 2.681705 -7.467004 -2.205489 8.315948 8.678882 15.974371 -8.708172 2.647889 -1.528744 1.528747 -0.000006 0.000016 -0.000010 1.998912 -1.154096 1.154076 -0.000001 -0.000003 0.000002 9.109283 -0.518007 2.259911 -1.307223 7.722608 -49.533806 4.851658 -0.329716 -68.854434 0.000001 0.000004 -0.000003 -0.000003 0.000006 -0.000004 9.533394 -0.000015 0.000009 -2.922111 5.550138 -52.816395 -1.860028 -2.502931 -68.522841 -0.000003 0.000003 0.000000 -0.000004 0.000002 -0.000002 9.104483 -0.043001 -1.865096 -1.404076 0.923928 -58.645404 -7.252996 -2.144534 -67.086835 0.000000 -0.000001 -0.000000 -0.000002 0.000000 -0.000000 8.077791 -0.486893 -3.806295 -3.792889 1.862860 -53.838379 -9.024035 -5.156535 -68.276647 -0.000008 -0.000010 -0.000015 0.000002 0.000001 -0.000002 -8.207801 -6.751703 -1.599539 -27.188821 -0.795455 -7.004871 42.283567 0.849591 1.647231 -6.355291 -14.850194 1.281839 1.112732 -1.787586 1.530998 -0.000000 0.000000 -0.000000 8.207797 -6.751684 -1.599545 -16.239463 -4.431137 7.897535 47.276111 -1.181158 -1.598950 -15.676430 0.327718 -4.725562 -11.524798 -0.519479 1.137884 0.000000 -0.000000 0.000000 
1.538271 97.064369 3.125843 -4.623970 5.307641 -2.689971 0.000000 10.181538 0.131523 6.940448 1.448340 0.863844 13.876560 2.960954 1.257677 13.876555 2.960953 1.257679 -0.000001 16.740383 -2.049018 -23.598104 -10.728303 0.026455 -0.000001 9.617822 1.684984 -17.163285 -7.280586 -0.062460 0.000001 22.037369 7.501078 -0.000001 0.000001 0.000000 -4.570000 11.014869 -2.160841 8.243475 -5.126865 -2.504147 -9.489744 17.250794 46.411159 2.301863 66.857395 -2.273531 -0.025566 9.904285 -0.339995 -2.464778 -1.573990 2.681909 -1.910859 -11.836488 -11.935090 -5.277335 -3.682282 -1.255542 -2.646269 -1.527782 1.527820 -0.000003 0.000006 -0.000007 -1.994582 -1.151583 1.151574 0.000006 0.000002 -0.000001 -9.108284 -0.517876 2.259802 -1.737068 -10.371606 47.467629 3.037821 2.644053 78.830738 -0.000002 0.000001 -0.000004 0.000001 0.000002 -0.000001 -9.532497 0.000005 -0.000003 -3.866813 -5.306452 47.254114 -3.339657 3.502823 80.921978 -0.000000 0.000000 -0.000001 0.000002 -0.000000 -0.000001 -9.103596 -0.043110 -1.865102 -4.003170 -0.674269 48.858471 -6.673336 0.292970 74.836074 -0.000009 0.000005 0.000012 0.000000 -0.000001 0.000000 -8.076699 -0.486721 -3.806300 -8.371508 -0.867077 47.836592 -6.549303 0.893988 73.436213 0.000003 0.000002 0.000012 -0.000000 0.000000 0.000001 4.570400 11.014695 -2.160824 2.651378 -1.049424 7.016896 -8.305748 -13.877388 -71.120212 3.175911 -57.077644 2.730809 15.023092 -20.657521 2.941024 2.466098 -1.576227 2.681692 -7.099195 -1.579742 8.902869 8.474036 16.001231 -8.821411 2.647890 -1.528734 1.528754 -0.000007 0.000011 -0.000007 1.998913 -1.154092 1.154078 0.000002 -0.000001 -0.000002 9.109279 -0.518028 2.259892 -0.664508 8.649417 -53.029476 4.902042 -0.832113 -74.009300 0.000000 0.000001 -0.000002 0.000002 0.000003 -0.000000 9.533401 -0.000017 -0.000004 -2.894560 5.912976 -56.163734 -2.121931 -2.609758 -73.914866 -0.000001 0.000003 -0.000001 -0.000003 -0.000000 -0.000003 9.104508 -0.043012 -1.865105 -1.879725 0.485350 -61.684941 -7.800963 -1.823781 -71.203506 -0.000003 0.000000 -0.000001 -0.000002 0.000004 -0.000001 8.077795 -0.486902 -3.806307 -4.789472 1.230153 -56.635252 -9.573140 -4.838252 -72.358874 -0.000008 -0.000011 -0.000015 0.000001 0.000001 0.000000 -8.207803 -6.751721 -1.599538 -27.517190 -0.852938 -6.495398 38.550506 0.416864 1.494541 -4.317079 -14.087071 3.661127 1.142034 -1.417184 1.284986 -0.000000 0.000000 0.000000 8.207801 -6.751707 -1.599545 -15.411004 -4.878533 8.039775 47.674536 -0.553245 -1.564536 -16.514962 1.436401 -4.919516 -11.563210 -0.092153 0.618312 -0.000000 -0.000000 0.000000 
1.834119 97.016144 3.823537 -4.860390 4.248932 -3.306797 0.000000 10.181527 0.131525 7.102863 1.475774 0.856369 14.203309 3.006181 1.197056 14.203310 3.006177 1.197058 0.000000 16.740362 -2.049024 -23.755883 -10.043820 0.076829 0.000000 9.617856 1.684977 -17.349606 -6.690769 0.167327 -0.000000 22.037384 7.501079 0.000000 -0.000001 -0.000000 -4.569999 11.014881 -2.160847 8.390396 -5.870489 -3.039669 -9.161182 20.043223 48.142821 2.168966 67.261189 -2.144467 -0.817890 10.321603 -0.246013 -2.464809 -1.574010 2.681910 0.657568 -12.472200 -13.083603 -5.661958 -3.721608 -1.085358 -2.646279 -1.527787 1.527816 -0.000003 0.000008 -0.000009 -1.994590 -1.151585 1.151577 0.000002 -0.000004 -0.000004 -9.108311 -0.517875 2.259801 -0.530330 -10.951348 49.740661 2.815652 3.116153 84.439341 -0.000004 0.000002 -0.000004 -0.000001 0.000003 -0.000000 -9.532495 -0.000002 0.000004 -3.510629 -5.784095 49.618845 -3.719549 3.531531 86.627399 0.000000 0.000001 -0.000001 0.000003 0.000001 -0.000001 -9.103585 -0.043117 -1.865100 -4.224484 -0.609116 51.376977 -7.097482 -0.149730 79.683104 -0.000005 0.000004 0.000013 -0.000000 -0.000003 0.000002 -8.076694 -0.486727 -3.806295 -9.141603 -0.981137 49.639906 -6.801151 0.469184 78.552319 0.000002 0.000003 0.000013 0.000002 0.000002 -0.000000 4.570402 11.014687 -2.160818 2.730560 -0.595082 7.976587 -6.920169 -12.525586 -72.432271 3.416946 -59.421990 2.998849 13.970833 -20.890443 1.791287 2.466098 -1.576227 2.681705 -6.652026 -0.781325 9.631490 8.274111 16.027537 -8.936780 2.647892 -1.528736 1.528753 -0.000006 0.000009 -0.000008 1.998906 -1.154081 1.154088 0.000005 -0.000002 -0.000002 9.109310 -0.518019 2.259902 0.050447 9.512219 -56.478660 4.864482 -1.336294 -79.071311 -0.000003 0.000000 -0.000001 -0.000003 -0.000001 -0.000002 9.533412 0.000001 0.000002 -2.831070 6.271275 -59.454167 -2.388343 -2.690505 -79.210414 0.000000 0.000004 -0.000000 -0.000002 0.000004 -0.000002 9.104514 -0.042987 -1.865098 -2.379577 0.080630 -64.672240 -8.299344 -1.448251 -75.242559 -0.000002 0.000001 -0.000000 -0.000004 0.000001 -0.000002 8.077808 -0.486900 -3.806297 -5.812862 0.666210 -59.387621 -10.058561 -4.477421 -76.362956 -0.000008 -0.000014 -0.000011 -0.000001 0.000002 -0.000000 -8.207801 -6.751711 -1.599540 -27.657576 -0.853568 -5.966876 34.527108 -0.016155 1.326179 -1.792936 -14.236446 5.244486 1.214019 -1.108329 1.093622 0.000000 -0.000001 0.000000 8.207798 -6.751707 -1.599544 -14.428174 -5.222190 8.208941 47.857944 0.075382 -1.525437 -17.257188 2.349435 -5.134402 -11.956137 0.123274 0.476720 0.000000 -0.000000 0.000000 
